Coordinates
version=1
nRows=24
nColumns=24
inDegrees=yes

Units are S.I. units (second, meters, Newtons, ...)
Angles are in degrees.

endheader
time	pelvis_tilt	pelvis_list	pelvis_rotation	pelvis_tx	pelvis_ty	pelvis_tz	hip_flexion_r	hip_adduction_r	hip_rotation_r	knee_angle_r	ankle_angle_r	subtalar_angle_r	mtp_angle_r	hip_flexion_l	hip_adduction_l	hip_rotation_l	knee_angle_l	ankle_angle_l	subtalar_angle_l	mtp_angle_l	lumbar_extension	lumbar_bending	lumbar_rotation
      4.03500000	     -6.21270437	     -3.16711048	     -7.97000362	     -0.41840875	     -0.03984505	     -0.17652974	     -7.84849897	      9.27807329	      9.76542302	    -24.82550873	      6.36253222	     15.00962986	     18.22808647	     38.47046480	     -2.97381294	    -18.27314293	    -18.33599782	      8.89893219	     15.30866758	    -16.00280444	      5.38235633	      4.05674900	      8.56601248
      4.04000000	     -6.31942448	     -2.82861941	     -8.04201887	     -0.41060686	     -0.04040397	     -0.17652446	     -7.61546720	      8.72980888	      9.22794230	    -25.82240903	      5.58318513	     16.11993800	     19.11774961	     38.37049640	     -2.56019617	    -18.12377835	    -18.70216087	      8.23062369	     14.21516976	    -15.68319144	      5.70639214	      3.65833484	      8.54040502
      4.04500000	     -6.39798197	     -2.46497258	     -8.02830016	     -0.40282960	     -0.04088080	     -0.17661544	     -7.35915511	      8.13488348	      8.53709197	    -26.82829035	      4.57599377	     17.18654037	     20.38050343	     38.24061689	     -2.04919148	    -17.76567717	    -19.01884099	      7.30232169	     12.96687872	    -15.10142650	      5.98887299	      3.21145860	      8.44905724
      4.05000000	     -6.47090178	     -2.03771008	     -8.07734464	     -0.39484434	     -0.04116172	     -0.17659152	     -7.13346597	      7.46318067	      8.06318753	    -27.67566193	      3.08309114	     17.93155678	     22.55430633	     38.05507398	     -1.51825392	    -17.57139982	    -19.21147676	      5.95142929	     11.52132405	    -13.30405260	      6.31063789	      2.70356201	      8.42490154
      4.05500000	     -6.62063425	     -1.57781751	     -8.04041020	     -0.38700210	     -0.04160569	     -0.17675327	     -6.67194573	      6.71990942	      7.28586770	    -28.86445461	      2.06964754	     19.44943421	     23.43646468	     38.06515148	     -0.92291338	    -17.26448455	    -19.64892125	      5.04118257	     10.26883036	    -13.23384219	      6.68704806	      2.16382931	      8.27751860
      4.06000000	     -6.72508930	     -1.06614626	     -7.93525453	     -0.37895590	     -0.04185374	     -0.17699886	     -6.28314076	      5.89551327	      6.48650328	    -29.89376942	      0.56699890	     20.65933807	     25.05146696	     37.98860460	     -0.19065905	    -16.73652213	    -19.99749510	      3.98252418	      8.78187837	    -13.06406482	      7.05281766	      1.55465383	      8.09238918
      4.06500000	     -6.86041586	     -0.56063678	     -7.91104179	     -0.37118436	     -0.04210300	     -0.17718086	     -5.74179933	      5.05222236	      5.79288569	    -31.08960225	     -0.91752708	     22.17004725	     26.53468716	     38.02433132	      0.45071795	    -16.35045706	    -20.49929249	      3.02260028	      7.44138720	    -13.17339868	      7.38603035	      0.97108564	      7.98777766
      4.07000000	     -6.98638510	     -0.02110955	     -7.82174756	     -0.36329032	     -0.04226846	     -0.17741972	     -5.19766541	      4.14947668	      5.02393213	    -32.23168013	     -2.72056153	     23.53169134	     28.28017319	     38.04562676	      1.18474142	    -15.79920343	    -21.00261772	      2.09649755	      6.07234750	    -13.44975611	      7.73299272	      0.33925671	      7.84874603
      4.07500000	     -7.09492243	      0.54439212	     -7.66835758	     -0.35521125	     -0.04233899	     -0.17763542	     -4.69564035	      3.21372929	      4.23815597	    -33.23118411	     -4.98752479	     24.53899029	     30.67150062	     38.04016618	      1.98003217	    -15.19455791	    -21.53568031	      1.32349269	      4.84131089	    -13.94983079	      8.09745343	     -0.35163450	      7.61695825
      4.08000000	     -7.23458085	      1.09315448	     -7.55680359	     -0.34733358	     -0.04246878	     -0.17786427	     -4.05716260	      2.26999578	      3.51527680	    -34.40322091	     -7.18572479	     25.83466010	     32.50166339	     38.11770546	      2.71745759	    -14.65328693	    -22.17373484	      0.70264151	      3.74932416	    -14.69090828	      8.44468894	     -0.99905764	      7.46456808
      4.08500000	     -7.35982998	      1.62526343	     -7.42005106	     -0.33948960	     -0.04258680	     -0.17812582	     -3.40145805	      1.33395300	      2.82475130	    -35.59490277	     -9.55668721	     27.05301131	     34.17752768	     38.18299425	      3.45850723	    -14.07475275	    -22.84019858	      0.22705203	      2.75241765	    -15.60646106	      8.76050246	     -1.63185691	      7.29676465
      4.09000000	     -7.53147757	      2.16728452	     -7.33532225	     -0.33167282	     -0.04277153	     -0.17834658	     -2.62528892	      0.39215670	      2.32128551	    -36.93426372	    -11.80928165	     28.50997344	     34.99936102	     38.28092044	      4.16000275	    -13.60751951	    -23.47880050	     -0.20115844	      1.85154944	    -16.18126908	      9.12593152	     -2.25100623	      7.19192340
      4.09500000	     -7.57461133	      2.64858500	     -7.11289129	     -0.32393540	     -0.04282792	     -0.17867959	     -2.01502885	     -0.50514809	      1.60716729	    -38.08071618	    -14.69259949	     29.22937480	     36.85073038	     38.24225475	      4.90070805	    -13.03965900	    -24.15997732	     -0.34947868	      1.15217659	    -17.37187958	      9.30550881	     -2.85852842	      6.94922303
      4.10000000	     -7.71464991	      3.19988117	     -6.98057140	     -0.31621407	     -0.04304826	     -0.17887791	     -1.17926163	     -1.44950534	      1.11212023	    -39.55599335	    -17.10070440	     30.20644009	     36.88325608	     38.26202027	      5.60769256	    -12.74861540	    -24.71986548	     -0.59885685	      0.50598504	    -17.66719574	      9.60994048	     -3.50898620	      6.83408407
      4.10500000	     -7.81434366	      3.63108538	     -6.73507104	     -0.30863497	     -0.04319804	     -0.17934736	     -0.41444824	     -2.25956506	      0.64819644	    -40.91076452	    -19.81153663	     30.99540525	     37.21764595	     38.21013147	      6.32319954	    -12.15634287	    -25.24971111	     -0.82145494	     -0.26055518	    -18.18642591	      9.81267966	     -4.03358811	      6.56163869
      4.11000000	     -7.85514457	      4.13795144	     -6.53704151	     -0.30105843	     -0.04332864	     -0.17960191	      0.36812242	     -3.14725546	      0.16081910	    -42.41439508	    -22.43956685	     31.31950953	     36.88328295	     38.05017367	      7.01722844	    -11.95670879	    -25.70307513	     -0.86849795	     -0.67958354	    -18.31418316	      9.96406558	     -4.65796013	      6.37929402
      4.11500000	     -7.91251589	      4.58387867	     -6.26848006	     -0.29364476	     -0.04347105	     -0.18009322	      1.19532695	     -3.96784337	     -0.31326915	    -43.93485986	    -25.11463161	     31.47183447	     36.37301253	     37.87763260	      7.72668351	    -11.61874626	    -26.09471161	     -0.95132445	     -1.19881794	    -18.42162467	     10.08398642	     -5.20319692	      6.12839960
      4.12000000	     -7.96565756	      5.00837910	     -5.96588606	     -0.28626709	     -0.04361193	     -0.18068593	      2.04603716	     -4.76647212	     -0.79594410	    -45.49559243	    -27.74625088	     31.35173025	     35.54547094	     37.64751327	      8.44330524	    -11.29998011	    -26.40303755	     -0.95404449	     -1.68350586	    -18.39470179	     10.18778546	     -5.72215375	      5.81614633
      4.12500000	     -7.98331880	      5.49302006	     -5.68809801	     -0.27892566	     -0.04368143	     -0.18120624	      2.91587876	     -5.62734422	     -1.25379508	    -47.12006041	    -30.27318220	     30.85873762	     34.47825548	     37.31807953	      9.18666355	    -11.14042614	    -26.59491501	     -0.87855627	     -2.01509937	    -18.27916484	     10.25731134	     -6.31750036	      5.50786871
      4.13000000	     -8.06600472	      5.88299219	     -5.27974502	     -0.27180752	     -0.04384291	     -0.18197913	      3.89425061	     -6.38775733	     -1.80446287	    -48.90487005	    -32.33786757	     30.27079903	     32.23028464	     37.05174149	      9.92757704	    -10.79422566	    -26.75838605	     -1.01455783	     -2.45975159	    -17.54969858	     10.32813357	     -6.80735909	      5.06461064
      4.13500000	     -8.03072760	      6.36727039	     -5.02482012	     -0.26472288	     -0.04376330	     -0.18259358	      4.80761399	     -7.25214200	     -2.21035012	    -50.58848768	    -34.61572129	     29.13405626	     30.90107486	     36.58599686	     10.68403143	    -10.64781325	    -26.79515985	     -0.93235590	     -2.77018086	    -17.32929065	     10.29373707	     -7.37662504	      4.81950310
      4.14000000	     -8.07718698	      6.69365484	     -4.60899260	     -0.25780215	     -0.04376297	     -0.18349973	      5.80661739	     -7.95918429	     -2.75967562	    -52.35832855	    -36.36447306	     27.98647664	     28.58456457	     36.19085371	     11.39336111	    -10.28371102	    -26.82557175	     -0.94169571	     -3.17042593	    -16.62739899	     10.28331468	     -7.77515826	      4.36876805
      4.14500000	     -8.09669257	      7.15815259	     -4.26877413	     -0.25086443	     -0.04368037	     -0.18424088	      6.83352994	     -8.79736883	     -3.17280925	    -54.16167051	    -37.66211620	     26.66879868	     26.46666379	     35.70172372	     12.18410981	    -10.04414702	    -26.70767561	     -0.98686050	     -3.53037335	    -15.82168958	     10.27784430	     -8.33686349	      3.93341134
      4.15000000	     -8.07855031	      7.57358193	     -3.99906900	     -0.24408805	     -0.04343683	     -0.18501222	      7.85864280	     -9.57565160	     -3.49835276	    -55.84795775	    -38.97919682	     25.10682801	     25.04179977	     35.15115445	     12.91451601	     -9.79591781	    -26.56946069	     -0.91401684	     -3.91345983	    -15.49042305	     10.20754439	     -8.79852074	      3.66891191
